<mxfile host="Electron" agent="Mozilla/5.0 (Windows NT 10.0; Win64; x64) AppleWebKit/537.36 (KHTML, like Gecko) draw.io/27.0.2 Chrome/134.0.6998.205 Electron/35.3.0 Safari/537.36" version="27.0.2">
  <diagram name="Page-1" id="4i4iHupl4I6Dp6R4O8Hb">
    <mxGraphModel dx="1678" dy="989" grid="1" gridSize="10" guides="1" tooltips="1" connect="1" arrows="1" fold="1" page="1" pageScale="1" pageWidth="850" pageHeight="1100" math="0" shadow="0">
      <root>
        <mxCell id="0" />
        <mxCell id="1" parent="0" />
        <mxCell id="ak0zmbQx37y6w7d9NfVM-2" value="DailyRecord Table" style="shape=cylinder3;whiteSpace=wrap;html=1;boundedLbl=1;backgroundOutline=1;size=15;" vertex="1" parent="1">
          <mxGeometry x="843" y="2028.5" width="75" height="100" as="geometry" />
        </mxCell>
        <mxCell id="ak0zmbQx37y6w7d9NfVM-3" value="State Table" style="shape=cylinder3;whiteSpace=wrap;html=1;boundedLbl=1;backgroundOutline=1;size=15;" vertex="1" parent="1">
          <mxGeometry x="843" y="1808.5" width="75" height="100" as="geometry" />
        </mxCell>
        <mxCell id="ak0zmbQx37y6w7d9NfVM-4" value="User Scan QR" style="rounded=0;whiteSpace=wrap;html=1;" vertex="1" parent="1">
          <mxGeometry x="495" y="1818.5" width="120" height="60" as="geometry" />
        </mxCell>
        <mxCell id="ak0zmbQx37y6w7d9NfVM-5" style="edgeStyle=orthogonalEdgeStyle;rounded=0;orthogonalLoop=1;jettySize=auto;html=1;" edge="1" parent="1">
          <mxGeometry relative="1" as="geometry">
            <mxPoint x="615" y="1836.5" as="sourcePoint" />
            <mxPoint x="845" y="1836.5" as="targetPoint" />
          </mxGeometry>
        </mxCell>
        <mxCell id="ak0zmbQx37y6w7d9NfVM-7" value="First Record" style="rounded=1;align=center;fillColor=#F1F2F4;strokeColor=none;html=1;whiteSpace=wrap;fontColor=#596780;fontSize=12" vertex="1" parent="1">
          <mxGeometry x="495" y="1785.5" width="80" height="33" as="geometry" />
        </mxCell>
        <mxCell id="ak0zmbQx37y6w7d9NfVM-9" value="" style="html=1;verticalAlign=bottom;endArrow=open;dashed=1;endSize=8;curved=0;rounded=0;exitX=-0.013;exitY=0.6;exitDx=0;exitDy=0;exitPerimeter=0;entryX=1;entryY=0.867;entryDx=0;entryDy=0;entryPerimeter=0;" edge="1" parent="1" source="ak0zmbQx37y6w7d9NfVM-3" target="ak0zmbQx37y6w7d9NfVM-4">
          <mxGeometry x="0.0043" relative="1" as="geometry">
            <mxPoint x="745" y="1868.5" as="sourcePoint" />
            <mxPoint x="665" y="1868.5" as="targetPoint" />
            <mxPoint as="offset" />
          </mxGeometry>
        </mxCell>
        <mxCell id="ak0zmbQx37y6w7d9NfVM-11" value="- UserID" style="text;html=1;align=center;verticalAlign=middle;resizable=0;points=[];autosize=1;strokeColor=none;fillColor=none;" vertex="1" parent="1">
          <mxGeometry x="695" y="1798.5" width="70" height="30" as="geometry" />
        </mxCell>
        <mxCell id="ak0zmbQx37y6w7d9NfVM-12" value="NULL" style="text;html=1;align=center;verticalAlign=middle;resizable=0;points=[];autosize=1;strokeColor=none;fillColor=none;" vertex="1" parent="1">
          <mxGeometry x="705" y="1876.5" width="50" height="30" as="geometry" />
        </mxCell>
        <mxCell id="ak0zmbQx37y6w7d9NfVM-13" style="edgeStyle=orthogonalEdgeStyle;rounded=0;orthogonalLoop=1;jettySize=auto;html=1;entryX=0.013;entryY=0.42;entryDx=0;entryDy=0;entryPerimeter=0;" edge="1" parent="1" source="ak0zmbQx37y6w7d9NfVM-4" target="ak0zmbQx37y6w7d9NfVM-2">
          <mxGeometry relative="1" as="geometry">
            <Array as="points">
              <mxPoint x="555" y="2070.5" />
            </Array>
          </mxGeometry>
        </mxCell>
        <mxCell id="ak0zmbQx37y6w7d9NfVM-21" value="1" style="rounded=1;align=center;fillColor=#F1F2F4;strokeColor=none;html=1;whiteSpace=wrap;fontColor=#596780;fontSize=12" vertex="1" parent="1">
          <mxGeometry x="635" y="1802" width="30" height="23" as="geometry" />
        </mxCell>
        <mxCell id="ak0zmbQx37y6w7d9NfVM-22" value="2" style="rounded=1;align=center;fillColor=#F1F2F4;strokeColor=none;html=1;whiteSpace=wrap;fontColor=#596780;fontSize=12" vertex="1" parent="1">
          <mxGeometry x="635" y="1880" width="30" height="23" as="geometry" />
        </mxCell>
        <mxCell id="ak0zmbQx37y6w7d9NfVM-23" value="- UserID&lt;div&gt;- GUID&lt;br&gt;&lt;div&gt;- CheckIn Time&lt;/div&gt;&lt;/div&gt;" style="text;html=1;align=center;verticalAlign=middle;resizable=0;points=[];autosize=1;strokeColor=none;fillColor=none;" vertex="1" parent="1">
          <mxGeometry x="645" y="2018.5" width="100" height="60" as="geometry" />
        </mxCell>
        <mxCell id="ak0zmbQx37y6w7d9NfVM-24" value="3" style="rounded=1;align=center;fillColor=#F1F2F4;strokeColor=none;html=1;whiteSpace=wrap;fontColor=#596780;fontSize=12" vertex="1" parent="1">
          <mxGeometry x="585" y="2037" width="30" height="23" as="geometry" />
        </mxCell>
        <mxCell id="ak0zmbQx37y6w7d9NfVM-26" style="edgeStyle=orthogonalEdgeStyle;rounded=0;orthogonalLoop=1;jettySize=auto;html=1;entryX=0.5;entryY=0;entryDx=0;entryDy=0;entryPerimeter=0;" edge="1" parent="1" source="ak0zmbQx37y6w7d9NfVM-4" target="ak0zmbQx37y6w7d9NfVM-3">
          <mxGeometry relative="1" as="geometry">
            <Array as="points">
              <mxPoint x="555" y="1728.5" />
              <mxPoint x="881" y="1728.5" />
            </Array>
          </mxGeometry>
        </mxCell>
        <mxCell id="ak0zmbQx37y6w7d9NfVM-27" value="4" style="rounded=1;align=center;fillColor=#F1F2F4;strokeColor=none;html=1;whiteSpace=wrap;fontColor=#596780;fontSize=12" vertex="1" parent="1">
          <mxGeometry x="575" y="1698.5" width="30" height="23" as="geometry" />
        </mxCell>
        <mxCell id="ak0zmbQx37y6w7d9NfVM-28" value="- UserID&lt;div&gt;- Date&lt;br&gt;&lt;div&gt;- State: CheckOut&lt;/div&gt;&lt;/div&gt;" style="text;html=1;align=center;verticalAlign=middle;resizable=0;points=[];autosize=1;strokeColor=none;fillColor=none;" vertex="1" parent="1">
          <mxGeometry x="665" y="1680" width="120" height="60" as="geometry" />
        </mxCell>
        <mxCell id="ak0zmbQx37y6w7d9NfVM-33" value="User Scan QR" style="rounded=0;whiteSpace=wrap;html=1;" vertex="1" parent="1">
          <mxGeometry x="1143" y="1818.5" width="120" height="60" as="geometry" />
        </mxCell>
        <mxCell id="ak0zmbQx37y6w7d9NfVM-34" style="edgeStyle=orthogonalEdgeStyle;rounded=0;orthogonalLoop=1;jettySize=auto;html=1;entryX=1;entryY=0;entryDx=0;entryDy=32.5;entryPerimeter=0;" edge="1" parent="1" source="ak0zmbQx37y6w7d9NfVM-33" target="ak0zmbQx37y6w7d9NfVM-3">
          <mxGeometry relative="1" as="geometry">
            <Array as="points">
              <mxPoint x="1011" y="1841.5" />
            </Array>
          </mxGeometry>
        </mxCell>
        <mxCell id="ak0zmbQx37y6w7d9NfVM-35" value="Second Record" style="rounded=1;align=center;fillColor=#F1F2F4;strokeColor=none;html=1;whiteSpace=wrap;fontColor=#596780;fontSize=12" vertex="1" parent="1">
          <mxGeometry x="1183" y="1785.5" width="80" height="33" as="geometry" />
        </mxCell>
        <mxCell id="ak0zmbQx37y6w7d9NfVM-36" value="5" style="rounded=1;align=center;fillColor=#F1F2F4;strokeColor=none;html=1;whiteSpace=wrap;fontColor=#596780;fontSize=12" vertex="1" parent="1">
          <mxGeometry x="1105" y="1808.5" width="30" height="23" as="geometry" />
        </mxCell>
        <mxCell id="ak0zmbQx37y6w7d9NfVM-37" value="- UserID" style="text;html=1;align=center;verticalAlign=middle;resizable=0;points=[];autosize=1;strokeColor=none;fillColor=none;" vertex="1" parent="1">
          <mxGeometry x="980" y="1806.5" width="70" height="30" as="geometry" />
        </mxCell>
        <mxCell id="ak0zmbQx37y6w7d9NfVM-38" value="5" style="rounded=1;align=center;fillColor=#F1F2F4;strokeColor=none;html=1;whiteSpace=wrap;fontColor=#596780;fontSize=12" vertex="1" parent="1">
          <mxGeometry x="495" y="2298.5" width="30" height="23" as="geometry" />
        </mxCell>
        <mxCell id="ak0zmbQx37y6w7d9NfVM-39" value="User Scan QR" style="rounded=0;whiteSpace=wrap;html=1;" vertex="1" parent="1">
          <mxGeometry x="495" y="2228.5" width="120" height="60" as="geometry" />
        </mxCell>
        <mxCell id="ak0zmbQx37y6w7d9NfVM-40" value="First Record" style="rounded=1;align=center;fillColor=#F1F2F4;strokeColor=none;html=1;whiteSpace=wrap;fontColor=#596780;fontSize=12" vertex="1" parent="1">
          <mxGeometry x="495" y="2195.5" width="80" height="33" as="geometry" />
        </mxCell>
        <mxCell id="ak0zmbQx37y6w7d9NfVM-45" style="edgeStyle=orthogonalEdgeStyle;rounded=0;orthogonalLoop=1;jettySize=auto;html=1;entryX=0;entryY=0.5;entryDx=0;entryDy=0;" edge="1" parent="1" source="ak0zmbQx37y6w7d9NfVM-41" target="ak0zmbQx37y6w7d9NfVM-43">
          <mxGeometry relative="1" as="geometry" />
        </mxCell>
        <mxCell id="ak0zmbQx37y6w7d9NfVM-41" value="" style="strokeWidth=2;html=1;shape=mxgraph.flowchart.start_2;whiteSpace=wrap;" vertex="1" parent="1">
          <mxGeometry x="155" y="1185" width="50" height="50" as="geometry" />
        </mxCell>
        <mxCell id="ak0zmbQx37y6w7d9NfVM-48" value="" style="edgeStyle=orthogonalEdgeStyle;rounded=0;orthogonalLoop=1;jettySize=auto;html=1;" edge="1" parent="1" source="ak0zmbQx37y6w7d9NfVM-43" target="ak0zmbQx37y6w7d9NfVM-47">
          <mxGeometry relative="1" as="geometry" />
        </mxCell>
        <mxCell id="ak0zmbQx37y6w7d9NfVM-43" value="User Scan QR" style="rounded=0;whiteSpace=wrap;html=1;" vertex="1" parent="1">
          <mxGeometry x="285" y="1180" width="120" height="60" as="geometry" />
        </mxCell>
        <mxCell id="ak0zmbQx37y6w7d9NfVM-51" value="" style="edgeStyle=orthogonalEdgeStyle;rounded=0;orthogonalLoop=1;jettySize=auto;html=1;" edge="1" parent="1" source="ak0zmbQx37y6w7d9NfVM-47" target="ak0zmbQx37y6w7d9NfVM-50">
          <mxGeometry relative="1" as="geometry" />
        </mxCell>
        <mxCell id="ak0zmbQx37y6w7d9NfVM-47" value="Query Database:&lt;div&gt;DailyRecordTable&lt;/div&gt;" style="whiteSpace=wrap;html=1;rounded=0;" vertex="1" parent="1">
          <mxGeometry x="485" y="1180" width="120" height="60" as="geometry" />
        </mxCell>
        <mxCell id="ak0zmbQx37y6w7d9NfVM-49" value="&lt;div&gt;Parameter:&lt;/div&gt;&lt;div&gt;&lt;ul&gt;&lt;li&gt;&lt;span style=&quot;background-color: transparent; color: light-dark(rgb(0, 0, 0), rgb(255, 255, 255));&quot;&gt;UserID&lt;/span&gt;&lt;/li&gt;&lt;li&gt;&lt;span style=&quot;background-color: transparent; color: light-dark(rgb(0, 0, 0), rgb(255, 255, 255));&quot;&gt;Current Date&lt;/span&gt;&lt;/li&gt;&lt;/ul&gt;&lt;/div&gt;" style="text;html=1;align=center;verticalAlign=middle;resizable=0;points=[];autosize=1;strokeColor=none;fillColor=none;" vertex="1" parent="1">
          <mxGeometry x="475" y="1260" width="130" height="80" as="geometry" />
        </mxCell>
        <mxCell id="ak0zmbQx37y6w7d9NfVM-53" value="" style="edgeStyle=orthogonalEdgeStyle;rounded=0;orthogonalLoop=1;jettySize=auto;html=1;" edge="1" parent="1" source="ak0zmbQx37y6w7d9NfVM-50" target="ak0zmbQx37y6w7d9NfVM-52">
          <mxGeometry relative="1" as="geometry" />
        </mxCell>
        <mxCell id="ak0zmbQx37y6w7d9NfVM-66" value="" style="edgeStyle=orthogonalEdgeStyle;rounded=0;orthogonalLoop=1;jettySize=auto;html=1;" edge="1" parent="1" source="ak0zmbQx37y6w7d9NfVM-50" target="ak0zmbQx37y6w7d9NfVM-65">
          <mxGeometry relative="1" as="geometry" />
        </mxCell>
        <mxCell id="ak0zmbQx37y6w7d9NfVM-50" value="Entry Exist?" style="rhombus;whiteSpace=wrap;html=1;rounded=0;" vertex="1" parent="1">
          <mxGeometry x="695" y="1160" width="100" height="100" as="geometry" />
        </mxCell>
        <mxCell id="ak0zmbQx37y6w7d9NfVM-55" value="" style="edgeStyle=orthogonalEdgeStyle;rounded=0;orthogonalLoop=1;jettySize=auto;html=1;" edge="1" parent="1" source="ak0zmbQx37y6w7d9NfVM-52" target="ak0zmbQx37y6w7d9NfVM-54">
          <mxGeometry relative="1" as="geometry" />
        </mxCell>
        <mxCell id="ak0zmbQx37y6w7d9NfVM-52" value="Check In" style="whiteSpace=wrap;html=1;rounded=0;" vertex="1" parent="1">
          <mxGeometry x="885" y="1180" width="120" height="60" as="geometry" />
        </mxCell>
        <mxCell id="ak0zmbQx37y6w7d9NfVM-72" style="edgeStyle=orthogonalEdgeStyle;rounded=0;orthogonalLoop=1;jettySize=auto;html=1;" edge="1" parent="1">
          <mxGeometry relative="1" as="geometry">
            <mxPoint x="1296" y="1210" as="targetPoint" />
            <mxPoint x="1206" y="1210" as="sourcePoint" />
          </mxGeometry>
        </mxCell>
        <mxCell id="ak0zmbQx37y6w7d9NfVM-54" value="Create New Entry" style="whiteSpace=wrap;html=1;rounded=0;" vertex="1" parent="1">
          <mxGeometry x="1085" y="1180" width="120" height="60" as="geometry" />
        </mxCell>
        <mxCell id="ak0zmbQx37y6w7d9NfVM-56" value="DailyRecordTable" style="shape=cylinder3;whiteSpace=wrap;html=1;boundedLbl=1;backgroundOutline=1;size=15;" vertex="1" parent="1">
          <mxGeometry x="1305" y="1130" width="120" height="150" as="geometry" />
        </mxCell>
        <mxCell id="ak0zmbQx37y6w7d9NfVM-60" value="No" style="text;html=1;align=center;verticalAlign=middle;resizable=0;points=[];autosize=1;strokeColor=none;fillColor=none;" vertex="1" parent="1">
          <mxGeometry x="815" y="1180" width="40" height="30" as="geometry" />
        </mxCell>
        <mxCell id="ak0zmbQx37y6w7d9NfVM-63" value="Yes" style="text;html=1;align=center;verticalAlign=middle;resizable=0;points=[];autosize=1;strokeColor=none;fillColor=none;" vertex="1" parent="1">
          <mxGeometry x="755" y="1290" width="40" height="30" as="geometry" />
        </mxCell>
        <mxCell id="ak0zmbQx37y6w7d9NfVM-68" value="" style="edgeStyle=orthogonalEdgeStyle;rounded=0;orthogonalLoop=1;jettySize=auto;html=1;" edge="1" parent="1" source="ak0zmbQx37y6w7d9NfVM-65" target="ak0zmbQx37y6w7d9NfVM-67">
          <mxGeometry relative="1" as="geometry" />
        </mxCell>
        <mxCell id="ak0zmbQx37y6w7d9NfVM-84" value="" style="edgeStyle=orthogonalEdgeStyle;rounded=0;orthogonalLoop=1;jettySize=auto;html=1;" edge="1" parent="1" source="ak0zmbQx37y6w7d9NfVM-65" target="ak0zmbQx37y6w7d9NfVM-83">
          <mxGeometry relative="1" as="geometry" />
        </mxCell>
        <mxCell id="ak0zmbQx37y6w7d9NfVM-65" value="Check Out&lt;div&gt;Exist?&lt;/div&gt;" style="rhombus;whiteSpace=wrap;html=1;rounded=0;" vertex="1" parent="1">
          <mxGeometry x="695" y="1340" width="100" height="100" as="geometry" />
        </mxCell>
        <mxCell id="ak0zmbQx37y6w7d9NfVM-75" value="" style="edgeStyle=orthogonalEdgeStyle;rounded=0;orthogonalLoop=1;jettySize=auto;html=1;" edge="1" parent="1" source="ak0zmbQx37y6w7d9NfVM-67" target="ak0zmbQx37y6w7d9NfVM-74">
          <mxGeometry relative="1" as="geometry" />
        </mxCell>
        <mxCell id="ak0zmbQx37y6w7d9NfVM-67" value="Check Out" style="whiteSpace=wrap;html=1;rounded=0;" vertex="1" parent="1">
          <mxGeometry x="885" y="1360" width="120" height="60" as="geometry" />
        </mxCell>
        <mxCell id="ak0zmbQx37y6w7d9NfVM-69" value="No" style="text;html=1;align=center;verticalAlign=middle;resizable=0;points=[];autosize=1;strokeColor=none;fillColor=none;" vertex="1" parent="1">
          <mxGeometry x="815" y="1358" width="40" height="30" as="geometry" />
        </mxCell>
        <mxCell id="ak0zmbQx37y6w7d9NfVM-76" style="edgeStyle=orthogonalEdgeStyle;rounded=0;orthogonalLoop=1;jettySize=auto;html=1;" edge="1" parent="1" source="ak0zmbQx37y6w7d9NfVM-74">
          <mxGeometry relative="1" as="geometry">
            <mxPoint x="1365" y="1290" as="targetPoint" />
          </mxGeometry>
        </mxCell>
        <mxCell id="ak0zmbQx37y6w7d9NfVM-74" value="Update existing entry" style="whiteSpace=wrap;html=1;rounded=0;" vertex="1" parent="1">
          <mxGeometry x="1085" y="1360" width="120" height="60" as="geometry" />
        </mxCell>
        <mxCell id="ak0zmbQx37y6w7d9NfVM-79" value="Yes" style="text;html=1;align=center;verticalAlign=middle;resizable=0;points=[];autosize=1;strokeColor=none;fillColor=none;" vertex="1" parent="1">
          <mxGeometry x="755" y="1470" width="40" height="30" as="geometry" />
        </mxCell>
        <mxCell id="ak0zmbQx37y6w7d9NfVM-83" value="Check In Exist" style="rhombus;whiteSpace=wrap;html=1;rounded=0;" vertex="1" parent="1">
          <mxGeometry x="695" y="1520" width="100" height="100" as="geometry" />
        </mxCell>
        <mxCell id="ak0zmbQx37y6w7d9NfVM-85" style="edgeStyle=orthogonalEdgeStyle;rounded=0;orthogonalLoop=1;jettySize=auto;html=1;entryX=0;entryY=0.5;entryDx=0;entryDy=0;" edge="1" parent="1" source="ak0zmbQx37y6w7d9NfVM-86" target="ak0zmbQx37y6w7d9NfVM-88">
          <mxGeometry relative="1" as="geometry" />
        </mxCell>
        <mxCell id="ak0zmbQx37y6w7d9NfVM-86" value="" style="strokeWidth=2;html=1;shape=mxgraph.flowchart.start_2;whiteSpace=wrap;" vertex="1" parent="1">
          <mxGeometry x="70" y="150" width="50" height="50" as="geometry" />
        </mxCell>
        <mxCell id="ak0zmbQx37y6w7d9NfVM-87" value="" style="edgeStyle=orthogonalEdgeStyle;rounded=0;orthogonalLoop=1;jettySize=auto;html=1;" edge="1" parent="1" source="ak0zmbQx37y6w7d9NfVM-88" target="ak0zmbQx37y6w7d9NfVM-90">
          <mxGeometry relative="1" as="geometry" />
        </mxCell>
        <mxCell id="ak0zmbQx37y6w7d9NfVM-88" value="User Scan QR" style="rounded=0;whiteSpace=wrap;html=1;" vertex="1" parent="1">
          <mxGeometry x="200" y="145" width="120" height="60" as="geometry" />
        </mxCell>
        <mxCell id="ak0zmbQx37y6w7d9NfVM-89" value="" style="edgeStyle=orthogonalEdgeStyle;rounded=0;orthogonalLoop=1;jettySize=auto;html=1;" edge="1" parent="1" source="ak0zmbQx37y6w7d9NfVM-90" target="ak0zmbQx37y6w7d9NfVM-94">
          <mxGeometry relative="1" as="geometry" />
        </mxCell>
        <mxCell id="ak0zmbQx37y6w7d9NfVM-90" value="Query Database:&lt;div&gt;DailyRecordTable&lt;/div&gt;" style="whiteSpace=wrap;html=1;rounded=0;" vertex="1" parent="1">
          <mxGeometry x="400" y="145" width="120" height="60" as="geometry" />
        </mxCell>
        <mxCell id="ak0zmbQx37y6w7d9NfVM-91" value="&lt;div&gt;Parameter:&lt;/div&gt;&lt;div&gt;&lt;ul&gt;&lt;li&gt;&lt;span style=&quot;background-color: transparent; color: light-dark(rgb(0, 0, 0), rgb(255, 255, 255));&quot;&gt;UserID&lt;/span&gt;&lt;/li&gt;&lt;li&gt;&lt;span style=&quot;background-color: transparent; color: light-dark(rgb(0, 0, 0), rgb(255, 255, 255));&quot;&gt;Current Date&lt;/span&gt;&lt;/li&gt;&lt;/ul&gt;&lt;/div&gt;" style="text;html=1;align=center;verticalAlign=middle;resizable=0;points=[];autosize=1;strokeColor=none;fillColor=none;" vertex="1" parent="1">
          <mxGeometry x="385" y="70" width="130" height="80" as="geometry" />
        </mxCell>
        <mxCell id="ak0zmbQx37y6w7d9NfVM-92" value="" style="edgeStyle=orthogonalEdgeStyle;rounded=0;orthogonalLoop=1;jettySize=auto;html=1;" edge="1" parent="1" source="ak0zmbQx37y6w7d9NfVM-94" target="ak0zmbQx37y6w7d9NfVM-96">
          <mxGeometry relative="1" as="geometry" />
        </mxCell>
        <mxCell id="ak0zmbQx37y6w7d9NfVM-113" value="" style="edgeStyle=orthogonalEdgeStyle;rounded=0;orthogonalLoop=1;jettySize=auto;html=1;" edge="1" parent="1" source="ak0zmbQx37y6w7d9NfVM-94" target="ak0zmbQx37y6w7d9NfVM-112">
          <mxGeometry relative="1" as="geometry" />
        </mxCell>
        <mxCell id="ak0zmbQx37y6w7d9NfVM-94" value="Entry Exist?" style="rhombus;whiteSpace=wrap;html=1;rounded=0;" vertex="1" parent="1">
          <mxGeometry x="610" y="125" width="100" height="100" as="geometry" />
        </mxCell>
        <mxCell id="ak0zmbQx37y6w7d9NfVM-95" value="" style="edgeStyle=orthogonalEdgeStyle;rounded=0;orthogonalLoop=1;jettySize=auto;html=1;" edge="1" parent="1" source="ak0zmbQx37y6w7d9NfVM-96" target="ak0zmbQx37y6w7d9NfVM-98">
          <mxGeometry relative="1" as="geometry" />
        </mxCell>
        <mxCell id="ak0zmbQx37y6w7d9NfVM-96" value="Check In" style="whiteSpace=wrap;html=1;rounded=0;" vertex="1" parent="1">
          <mxGeometry x="850" y="145" width="120" height="60" as="geometry" />
        </mxCell>
        <mxCell id="ak0zmbQx37y6w7d9NfVM-97" style="edgeStyle=orthogonalEdgeStyle;rounded=0;orthogonalLoop=1;jettySize=auto;html=1;" edge="1" parent="1">
          <mxGeometry relative="1" as="geometry">
            <mxPoint x="1260" y="175" as="targetPoint" />
            <mxPoint x="1121" y="175" as="sourcePoint" />
          </mxGeometry>
        </mxCell>
        <mxCell id="ak0zmbQx37y6w7d9NfVM-98" value="Create New Entry" style="whiteSpace=wrap;html=1;rounded=0;" vertex="1" parent="1">
          <mxGeometry x="1050" y="145" width="120" height="60" as="geometry" />
        </mxCell>
        <mxCell id="ak0zmbQx37y6w7d9NfVM-99" value="DailyRecordTable" style="shape=cylinder3;whiteSpace=wrap;html=1;boundedLbl=1;backgroundOutline=1;size=15;" vertex="1" parent="1">
          <mxGeometry x="1280" y="95" width="120" height="150" as="geometry" />
        </mxCell>
        <mxCell id="ak0zmbQx37y6w7d9NfVM-100" value="No" style="text;html=1;align=center;verticalAlign=middle;resizable=0;points=[];autosize=1;strokeColor=none;fillColor=none;" vertex="1" parent="1">
          <mxGeometry x="768" y="145" width="40" height="30" as="geometry" />
        </mxCell>
        <mxCell id="ak0zmbQx37y6w7d9NfVM-101" value="Yes" style="text;html=1;align=center;verticalAlign=middle;resizable=0;points=[];autosize=1;strokeColor=none;fillColor=none;" vertex="1" parent="1">
          <mxGeometry x="660" y="265" width="40" height="30" as="geometry" />
        </mxCell>
        <mxCell id="ak0zmbQx37y6w7d9NfVM-119" value="" style="edgeStyle=orthogonalEdgeStyle;rounded=0;orthogonalLoop=1;jettySize=auto;html=1;" edge="1" parent="1" source="ak0zmbQx37y6w7d9NfVM-112" target="ak0zmbQx37y6w7d9NfVM-118">
          <mxGeometry relative="1" as="geometry" />
        </mxCell>
        <mxCell id="ak0zmbQx37y6w7d9NfVM-112" value="&lt;div&gt;Retrieve&lt;/div&gt;List&amp;lt;DailyRecordTable&amp;gt;(CurrentDate)" style="rounded=0;whiteSpace=wrap;html=1;" vertex="1" parent="1">
          <mxGeometry x="570" y="325" width="180" height="60" as="geometry" />
        </mxCell>
        <mxCell id="ak0zmbQx37y6w7d9NfVM-121" value="" style="edgeStyle=orthogonalEdgeStyle;rounded=0;orthogonalLoop=1;jettySize=auto;html=1;" edge="1" parent="1" source="ak0zmbQx37y6w7d9NfVM-118" target="ak0zmbQx37y6w7d9NfVM-120">
          <mxGeometry relative="1" as="geometry" />
        </mxCell>
        <mxCell id="ak0zmbQx37y6w7d9NfVM-132" value="" style="edgeStyle=orthogonalEdgeStyle;rounded=0;orthogonalLoop=1;jettySize=auto;html=1;" edge="1" parent="1" source="ak0zmbQx37y6w7d9NfVM-118" target="ak0zmbQx37y6w7d9NfVM-131">
          <mxGeometry relative="1" as="geometry" />
        </mxCell>
        <mxCell id="ak0zmbQx37y6w7d9NfVM-118" value="Look for entry&amp;nbsp;&lt;div&gt;that has&lt;div&gt;check in but&amp;nbsp;&lt;/div&gt;&lt;div&gt;NO check out&lt;/div&gt;&lt;/div&gt;" style="rhombus;whiteSpace=wrap;html=1;rounded=0;" vertex="1" parent="1">
          <mxGeometry x="585" y="455" width="150" height="130" as="geometry" />
        </mxCell>
        <mxCell id="ak0zmbQx37y6w7d9NfVM-125" value="" style="edgeStyle=orthogonalEdgeStyle;rounded=0;orthogonalLoop=1;jettySize=auto;html=1;" edge="1" parent="1" source="ak0zmbQx37y6w7d9NfVM-120" target="ak0zmbQx37y6w7d9NfVM-124">
          <mxGeometry relative="1" as="geometry" />
        </mxCell>
        <mxCell id="ak0zmbQx37y6w7d9NfVM-120" value="Check Out" style="whiteSpace=wrap;html=1;rounded=0;" vertex="1" parent="1">
          <mxGeometry x="850" y="490" width="120" height="60" as="geometry" />
        </mxCell>
        <mxCell id="ak0zmbQx37y6w7d9NfVM-123" value="Entry found" style="text;html=1;align=center;verticalAlign=middle;resizable=0;points=[];autosize=1;strokeColor=none;fillColor=none;" vertex="1" parent="1">
          <mxGeometry x="750" y="490" width="80" height="30" as="geometry" />
        </mxCell>
        <mxCell id="ak0zmbQx37y6w7d9NfVM-130" style="edgeStyle=orthogonalEdgeStyle;rounded=0;orthogonalLoop=1;jettySize=auto;html=1;" edge="1" parent="1" source="ak0zmbQx37y6w7d9NfVM-124">
          <mxGeometry relative="1" as="geometry">
            <mxPoint x="1340" y="255" as="targetPoint" />
          </mxGeometry>
        </mxCell>
        <mxCell id="ak0zmbQx37y6w7d9NfVM-124" value="Update the found entry" style="whiteSpace=wrap;html=1;rounded=0;" vertex="1" parent="1">
          <mxGeometry x="1050" y="490" width="120" height="60" as="geometry" />
        </mxCell>
        <mxCell id="ak0zmbQx37y6w7d9NfVM-126" value="- UserID (Add)&lt;div&gt;- SessionID&amp;nbsp;&lt;span style=&quot;background-color: transparent; color: light-dark(rgb(0, 0, 0), rgb(255, 255, 255));&quot;&gt;(Add)&lt;/span&gt;&lt;/div&gt;&lt;div&gt;- CheckInTime&amp;nbsp;&lt;span style=&quot;background-color: transparent; color: light-dark(rgb(0, 0, 0), rgb(255, 255, 255));&quot;&gt;(Add)&lt;/span&gt;&lt;/div&gt;" style="text;html=1;align=center;verticalAlign=middle;resizable=0;points=[];autosize=1;strokeColor=none;fillColor=none;" vertex="1" parent="1">
          <mxGeometry x="1045" y="78" width="130" height="60" as="geometry" />
        </mxCell>
        <mxCell id="ak0zmbQx37y6w7d9NfVM-129" value="- UserID (Use for query)&lt;div&gt;- GUID&amp;nbsp;&lt;span style=&quot;background-color: transparent; color: light-dark(rgb(0, 0, 0), rgb(255, 255, 255));&quot;&gt;(Use for query)&lt;/span&gt;&lt;/div&gt;&lt;div&gt;- CheckOutTime (Update)&amp;nbsp;&lt;/div&gt;" style="text;html=1;align=center;verticalAlign=middle;resizable=0;points=[];autosize=1;strokeColor=none;fillColor=none;" vertex="1" parent="1">
          <mxGeometry x="1030" y="418" width="160" height="60" as="geometry" />
        </mxCell>
        <mxCell id="ak0zmbQx37y6w7d9NfVM-135" style="edgeStyle=orthogonalEdgeStyle;rounded=0;orthogonalLoop=1;jettySize=auto;html=1;" edge="1" parent="1" source="ak0zmbQx37y6w7d9NfVM-131">
          <mxGeometry relative="1" as="geometry">
            <mxPoint x="1340" y="255" as="targetPoint" />
          </mxGeometry>
        </mxCell>
        <mxCell id="ak0zmbQx37y6w7d9NfVM-131" value="Create New Entry" style="whiteSpace=wrap;html=1;rounded=0;" vertex="1" parent="1">
          <mxGeometry x="600" y="700" width="120" height="60" as="geometry" />
        </mxCell>
        <mxCell id="ak0zmbQx37y6w7d9NfVM-133" value="Entry NOT found" style="text;html=1;align=center;verticalAlign=middle;resizable=0;points=[];autosize=1;strokeColor=none;fillColor=none;" vertex="1" parent="1">
          <mxGeometry x="670" y="625" width="110" height="30" as="geometry" />
        </mxCell>
        <mxCell id="ak0zmbQx37y6w7d9NfVM-134" value="- UserID (Add)&lt;div&gt;- SessionID&amp;nbsp;&lt;span style=&quot;background-color: transparent; color: light-dark(rgb(0, 0, 0), rgb(255, 255, 255));&quot;&gt;(Add)&lt;/span&gt;&lt;/div&gt;&lt;div&gt;- CheckInTime&amp;nbsp;&lt;span style=&quot;background-color: transparent; color: light-dark(rgb(0, 0, 0), rgb(255, 255, 255));&quot;&gt;(Add)&lt;/span&gt;&lt;/div&gt;" style="text;html=1;align=center;verticalAlign=middle;resizable=0;points=[];autosize=1;strokeColor=none;fillColor=none;" vertex="1" parent="1">
          <mxGeometry x="455" y="700" width="130" height="60" as="geometry" />
        </mxCell>
        <mxCell id="ak0zmbQx37y6w7d9NfVM-136" value="SELECT * FROM DailyRecordTable WHERE&amp;nbsp;&lt;div&gt;UserID = UserID AND Date(CheckInTime) = CurrentDate&lt;/div&gt;" style="text;html=1;align=center;verticalAlign=middle;resizable=0;points=[];autosize=1;strokeColor=none;fillColor=none;" vertex="1" parent="1">
          <mxGeometry x="230" y="335" width="330" height="40" as="geometry" />
        </mxCell>
      </root>
    </mxGraphModel>
  </diagram>
</mxfile>
